Coordinates
version=1
nRows=11
nColumns=63
inDegrees=yes

Units are S.I. units (second, meters, Newtons, ...)
If the header above contains a line with 'inDegrees', this indicates whether rotational values are in degrees (yes) or radians (no).

endheader
time	pelvis_tilt	pelvis_list	pelvis_rotation	pelvis_tx	pelvis_ty	pelvis_tz	hip_flexion_r	hip_adduction_r	hip_rotation_r	knee_angle_r	knee_angle_r_beta	ankle_angle_r	subtalar_angle_r	mtp_angle_r	hip_flexion_l	hip_adduction_l	hip_rotation_l	knee_angle_l	knee_angle_l_beta	ankle_angle_l	subtalar_angle_l	mtp_angle_l	L5_S1_Flex_Ext	L5_S1_Lat_Bending	L5_S1_axial_rotation	L4_L5_Flex_Ext	L4_L5_Lat_Bending	L4_L5_axial_rotation	L3_L4_Flex_Ext	L3_L4_Lat_Bending	L3_L4_axial_rotation	L2_L3_Flex_Ext	L2_L3_Lat_Bending	L2_L3_axial_rotation	L1_L2_Flex_Ext	L1_L2_Lat_Bending	L1_L2_axial_rotation	L1_T12_Flex_Ext	L1_T12_Lat_Bending	L1_T12_axial_rotation	Abs_r3	Abs_r2	Abs_r1	Abs_t1	Abs_t2	neck_flexion	neck_bending	neck_rotation	arm_flex_r	arm_add_r	arm_rot_r	elbow_flex_r	pro_sup_r	wrist_flex_r	wrist_dev_r	arm_flex_l	arm_add_l	arm_rot_l	elbow_flex_l	pro_sup_l	wrist_flex_l	wrist_dev_l
3.766667	1.490644	3.704905	79.491651	0.209703	0.531041	1.028842	-7.778634	0.658525	-5.633247	7.391424	0.129005	28.564794	14.076934	0.000000	-9.717625	-1.614233	3.501959	2.435957	0.042515	23.882949	-13.147299	0.000000	-0.314559	-0.207381	1.540814	-0.584167	-0.275816	1.637115	-0.516789	-0.504225	1.637115	-0.359509	-0.504225	1.348213	-0.292099	-0.422890	1.251912	-0.179739	-0.321232	1.155611	-2.246863	-2.345930	8.569547	0.000000	0.000000	-2.379454	5.489991	-19.338364	65.382294	-45.779349	-30.900379	147.605733	32.741466	8.637211	19.370680	75.946620	-21.423487	0.117723	138.356355	87.848664	2.056699	7.029277
3.783333	1.839432	4.005556	79.666115	0.208908	0.531504	1.028888	-8.104835	0.953597	-5.812479	7.544573	0.131678	28.273274	13.868978	0.000000	-9.781740	-1.941138	2.596043	3.136498	0.054742	24.331289	-12.161275	0.000000	-0.328439	-0.177374	1.390863	-0.609943	-0.235908	1.477792	-0.539592	-0.431268	1.477792	-0.375373	-0.431268	1.217005	-0.304988	-0.361702	1.130076	-0.187670	-0.274753	1.043147	-2.346005	-2.006494	7.735562	0.000000	0.000000	-3.503765	5.314384	-18.840037	58.399808	-43.355055	-38.561985	148.937369	34.061938	15.359529	15.654341	69.950856	-21.939413	-4.033097	140.312776	87.129037	3.626689	6.267376
3.800000	2.111213	4.261085	79.848347	0.208445	0.531756	1.028878	-8.371919	1.206068	-5.897579	7.700610	0.134401	28.042644	13.554230	0.000000	-9.722182	-2.240357	1.550968	3.986785	0.069583	24.887679	-10.978385	0.000000	-0.338800	-0.151374	1.254468	-0.629185	-0.201328	1.332873	-0.556614	-0.368052	1.332873	-0.387214	-0.368052	1.097660	-0.314609	-0.308683	1.019256	-0.193590	-0.234479	0.940851	-2.420011	-1.712378	6.976977	0.000000	0.000000	-4.544268	5.022630	-18.149634	51.219990	-40.113847	-45.908751	150.071874	36.233311	22.620540	11.641986	63.486177	-22.193281	-8.772324	142.323275	86.274514	5.200943	5.228667
3.816667	2.311061	4.480122	79.985576	0.208356	0.531686	1.028800	-8.581926	1.409433	-5.860040	7.878309	0.137502	27.911160	13.150358	0.000000	-9.562663	-2.506849	0.381679	4.976900	0.086863	25.563130	-9.674967	0.000000	-0.347462	-0.126001	1.138353	-0.645272	-0.167582	1.209500	-0.570846	-0.306360	1.209500	-0.397115	-0.306360	0.996059	-0.322653	-0.256942	0.924912	-0.198540	-0.195176	0.853765	-2.481888	-1.425352	6.331179	0.000000	0.000000	-5.469887	4.577607	-17.167705	43.916498	-36.054650	-52.717566	150.977848	39.193819	30.243360	7.447065	56.679912	-22.208216	-13.865379	144.318808	85.465031	6.378712	3.670248
3.833333	2.438580	4.664091	80.067616	0.208626	0.531255	1.028663	-8.735433	1.555369	-5.740605	8.082743	0.141070	27.898756	12.721732	0.000000	-9.311945	-2.733194	-0.848357	6.097041	0.106413	26.347317	-8.330272	0.000000	-0.355667	-0.102728	1.032738	-0.660510	-0.136629	1.097284	-0.584326	-0.249774	1.097284	-0.406492	-0.249774	0.903646	-0.330273	-0.209483	0.839100	-0.203228	-0.159126	0.774554	-2.540497	-1.162083	5.743781	0.000000	0.000000	-6.238691	4.017108	-15.891509	36.602613	-31.261029	-58.685518	151.544106	42.843219	37.947878	3.159594	49.643457	-21.994877	-19.239866	146.243492	84.556241	7.429650	1.552801
3.850000	2.488200	4.814553	80.074501	0.209222	0.530461	1.028486	-8.829766	1.626700	-5.557543	8.318775	0.145190	28.030087	12.325073	0.000000	-8.989489	-2.900874	-2.094292	7.310333	0.127589	27.215178	-7.016293	0.000000	-0.364601	-0.083769	0.933791	-0.677101	-0.111413	0.992153	-0.599004	-0.203677	0.992153	-0.416703	-0.203677	0.817067	-0.338569	-0.170822	0.758705	-0.208333	-0.129759	0.700343	-2.604311	-0.947615	5.193467	0.000000	0.000000	-6.799500	3.429071	-14.331099	29.395541	-25.926416	-63.563858	151.711664	46.906576	45.371777	-1.069025	42.477181	-21.579002	-24.755071	148.003541	83.305186	8.856471	-1.097803
3.866667	2.460727	4.930873	79.983818	0.210096	0.529357	1.028300	-8.856201	1.611794	-5.357624	8.597619	0.150057	28.311774	12.032912	0.000000	-8.614825	-2.996398	-3.311967	8.571386	0.149599	28.130369	-5.810863	0.000000	-0.376471	-0.071484	0.853976	-0.699144	-0.095074	0.907349	-0.618504	-0.173807	0.907349	-0.430268	-0.173807	0.747229	-0.349591	-0.145771	0.693855	-0.215115	-0.110729	0.640482	-2.689093	-0.808646	4.749558	0.000000	0.000000	-7.086630	2.878792	-12.657418	22.407118	-20.416104	-67.153543	151.564584	50.795695	51.837940	-5.170396	35.291530	-20.927685	-30.188499	149.488933	81.609186	11.138263	-4.107300
3.883333	2.315836	5.012335	79.764269	0.211290	0.528016	1.028152	-8.794511	1.465762	-5.106161	8.925956	0.155787	28.754772	11.848743	0.000000	-8.201378	-2.968933	-4.513448	9.818948	0.171373	29.035100	-4.722756	0.000000	-0.390300	-0.073889	0.804308	-0.724827	-0.098272	0.854577	-0.641224	-0.179654	0.854577	-0.446074	-0.179654	0.703769	-0.362433	-0.150675	0.653500	-0.223018	-0.114454	0.603231	-2.787876	-0.835848	4.473319	0.000000	0.000000	-7.075313	2.473290	-10.982690	15.612495	-15.053116	-69.433916	151.155798	54.685531	57.290466	-9.177086	28.222562	-20.052263	-35.433202	150.617570	79.723466	14.770303	-7.276115
3.900000	2.049408	5.045379	79.400052	0.212798	0.526515	1.028060	-8.623573	1.184064	-4.820172	9.303135	0.162370	29.325015	11.800646	0.000000	-7.752760	-2.811648	-5.722639	10.997594	0.191944	29.891173	-3.731662	0.000000	-0.404123	-0.095127	0.812292	-0.750496	-0.126520	0.863060	-0.663933	-0.231293	0.863060	-0.461872	-0.231293	0.710756	-0.375268	-0.193984	0.659987	-0.230916	-0.147352	0.609219	-2.886608	-1.076101	4.517725	0.000000	0.000000	-6.734780	2.276981	-9.581359	9.060929	-10.211071	-70.541679	150.535714	58.751753	62.006299	-13.229614	21.305648	-18.972270	-40.218494	151.348341	78.060253	19.400802	-10.546013
3.916667	1.624808	5.032877	78.902682	0.214617	0.524937	1.028039	-8.331624	0.732369	-4.516895	9.732506	0.169864	30.004009	11.867654	0.000000	-7.282270	-2.476111	-6.824591	12.038064	0.210104	30.616630	-2.967684	0.000000	-0.415789	-0.143201	0.888019	-0.772162	-0.190458	0.943520	-0.683100	-0.348179	0.943520	-0.475206	-0.348179	0.777017	-0.386102	-0.292016	0.721515	-0.237582	-0.221819	0.666014	-2.969941	-1.619921	4.938896	0.000000	0.000000	-6.081782	2.351696	-8.637957	2.686273	-6.087560	-70.806805	149.676109	62.263240	66.624392	-16.253269	14.548431	-17.792478	-44.109349	151.669101	76.794243	24.004728	-13.769331
3.933333	1.107347	4.991706	78.272484	0.216511	0.523335	1.028146	-7.944723	0.160722	-4.194037	10.212998	0.178250	30.751368	12.070080	0.000000	-6.827469	-2.009162	-7.792413	12.905892	0.225250	31.182029	-2.486479	0.000000	-0.426826	-0.205864	1.020032	-0.792659	-0.273799	1.083784	-0.701233	-0.500538	1.083784	-0.487820	-0.500538	0.892528	-0.396351	-0.419798	0.828776	-0.243888	-0.318884	0.765024	-3.048776	-2.328777	5.673110	0.000000	0.000000	-5.202186	2.564534	-8.031695	-3.524554	-2.832575	-70.144021	148.580536	65.212524	70.290452	-18.284297	7.971832	-16.609933	-46.857254	151.586745	76.021313	27.760924	-16.771914
